<svg xmlns="http://www.w3.org/2000/svg" xmlns:xlink="http://www.w3.org/1999/xlink" width="500" zoomAndPan="magnify" viewBox="0 0 375 374.999991" height="500" preserveAspectRatio="xMidYMid meet" version="1.0"><defs><clipPath id="48343b12b3"><path d="M 112.5 112.5 L 262.5 112.5 L 262.5 262.5 L 112.5 262.5 Z M 112.5 112.5 " clip-rule="nonzero"/></clipPath><clipPath id="7ef96e3f47"><path d="M 278 212 L 337.453125 212 L 337.453125 286 L 278 286 Z M 278 212 " clip-rule="nonzero"/></clipPath><clipPath id="bf3ac118c3"><path d="M 80.203125 79 L 262 79 L 262 319.554688 L 80.203125 319.554688 Z M 80.203125 79 " clip-rule="nonzero"/></clipPath><clipPath id="e0d2b08bb0"><path d="M 104 55.554688 L 286 55.554688 L 286 296 L 104 296 Z M 104 55.554688 " clip-rule="nonzero"/></clipPath></defs><g clip-path="url(#48343b12b3)"><path fill="#1e88e5" d="M 187.503906 112.492188 C 228.765625 112.492188 262.507812 146.230469 262.507812 187.496094 C 262.507812 228.761719 228.769531 262.5 187.503906 262.5 C 146.238281 262.5 112.5 228.761719 112.5 187.496094 C 112.5 146.234375 146.238281 112.492188 187.503906 112.492188 Z M 187.503906 112.492188 " fill-opacity="1" fill-rule="evenodd"/></g><path fill="#fffffe" d="M 224.605469 216.292969 C 225.054688 216.933594 225.742188 217.347656 226.359375 217.347656 C 226.59375 217.347656 226.800781 217.285156 226.972656 217.167969 C 227.269531 216.964844 227.382812 216.644531 227.425781 216.414062 C 227.523438 215.875 227.355469 215.226562 226.976562 214.683594 L 215.664062 198.351562 C 214.902344 198.933594 214.097656 199.453125 213.253906 199.898438 Z M 224.605469 216.292969 " fill-opacity="1" fill-rule="evenodd"/><path fill="#fffffe" d="M 211.542969 198.734375 C 212.890625 198.121094 214.140625 197.324219 215.257812 196.355469 C 215.257812 196.351562 215.261719 196.351562 215.261719 196.351562 C 215.523438 196.125 215.78125 195.886719 216.035156 195.636719 C 218.9375 192.757812 220.539062 188.925781 220.539062 184.855469 C 220.539062 180.78125 218.9375 176.953125 216.035156 174.074219 C 214.578125 172.632812 212.886719 171.511719 211.003906 170.746094 C 211 170.746094 210.996094 170.742188 210.992188 170.742188 C 209.09375 169.972656 207.109375 169.597656 205.144531 169.597656 C 201.140625 169.597656 197.21875 171.148438 194.269531 174.074219 C 191.363281 176.953125 189.765625 180.78125 189.765625 184.855469 C 189.765625 188.925781 191.363281 192.757812 194.269531 195.636719 C 197.21875 198.5625 201.140625 200.113281 205.144531 200.113281 C 207.109375 200.113281 209.09375 199.738281 210.992188 198.96875 C 210.996094 198.96875 211 198.964844 211.003906 198.964844 C 211.191406 198.886719 211.371094 198.8125 211.542969 198.734375 Z M 193.519531 184.855469 C 193.519531 178.441406 198.738281 173.226562 205.152344 173.226562 C 211.5625 173.226562 216.78125 178.441406 216.78125 184.855469 C 216.78125 191.269531 211.5625 196.484375 205.152344 196.484375 C 198.738281 196.484375 193.519531 191.269531 193.519531 184.855469 Z M 193.519531 184.855469 " fill-opacity="1" fill-rule="evenodd"/><path fill="#fffffe" d="M 214.976562 184.855469 C 214.976562 179.4375 210.570312 175.027344 205.152344 175.027344 C 199.730469 175.027344 195.324219 179.4375 195.324219 184.855469 C 195.324219 190.273438 199.730469 194.683594 205.152344 194.683594 C 210.570312 194.683594 214.976562 190.273438 214.976562 184.855469 Z M 214.976562 184.855469 " fill-opacity="1" fill-rule="evenodd"/><path fill="#fffffe" d="M 147.554688 156.871094 L 147.554688 225.988281 C 147.554688 227.382812 148.6875 228.515625 150.078125 228.515625 L 200.050781 228.515625 C 201.441406 228.515625 202.574219 227.382812 202.574219 225.988281 L 202.574219 222.449219 L 157.945312 222.449219 C 155.558594 222.449219 153.617188 220.507812 153.617188 218.121094 L 153.617188 154.347656 L 150.078125 154.347656 C 148.6875 154.347656 147.554688 155.480469 147.554688 156.871094 Z M 147.554688 156.871094 " fill-opacity="1" fill-rule="evenodd"/><path fill="#fffffe" d="M 201.90625 201.605469 C 198.523438 200.960938 195.445312 199.339844 193 196.917969 C 189.75 193.695312 187.960938 189.414062 187.960938 184.855469 C 187.960938 180.296875 189.75 176.015625 193 172.792969 C 195.445312 170.371094 198.523438 168.75 201.90625 168.105469 C 204.769531 167.5625 207.691406 167.746094 210.441406 168.625 L 210.441406 159.753906 C 210.441406 159.582031 210.421875 159.40625 210.386719 159.238281 L 198.585938 159.238281 C 198.085938 159.238281 197.683594 158.832031 197.683594 158.335938 L 197.683594 146.53125 C 197.515625 146.496094 197.339844 146.480469 197.164062 146.480469 L 157.945312 146.480469 C 156.554688 146.480469 155.421875 147.613281 155.421875 149.003906 L 155.421875 218.121094 C 155.421875 219.515625 156.554688 220.648438 157.945312 220.648438 L 207.917969 220.648438 C 209.308594 220.648438 210.441406 219.515625 210.441406 218.121094 L 210.441406 201.085938 C 208.730469 201.632812 206.953125 201.910156 205.160156 201.910156 C 204.074219 201.910156 202.984375 201.808594 201.90625 201.605469 Z M 188.445312 199.5625 C 188.445312 200.058594 188.042969 200.460938 187.542969 200.460938 L 164.324219 200.460938 C 163.828125 200.460938 163.421875 200.058594 163.421875 199.5625 C 163.421875 199.0625 163.828125 198.660156 164.324219 198.660156 L 187.542969 198.660156 C 188.042969 198.660156 188.445312 199.0625 188.445312 199.5625 Z M 163.421875 188.894531 C 163.421875 188.398438 163.828125 187.992188 164.324219 187.992188 L 184.359375 187.992188 C 184.855469 187.992188 185.261719 188.398438 185.261719 188.894531 C 185.261719 189.394531 184.855469 189.796875 184.359375 189.796875 L 164.324219 189.796875 C 163.828125 189.796875 163.421875 189.394531 163.421875 188.894531 Z M 188.863281 168.46875 L 181.0625 168.46875 C 180.566406 168.46875 180.164062 168.0625 180.164062 167.566406 C 180.164062 167.066406 180.566406 166.664062 181.0625 166.664062 L 188.863281 166.664062 C 189.363281 166.664062 189.765625 167.066406 189.765625 167.566406 C 189.765625 168.0625 189.363281 168.46875 188.863281 168.46875 Z M 164.324219 156 L 188.863281 156 C 189.363281 156 189.765625 156.402344 189.765625 156.902344 C 189.765625 157.398438 189.363281 157.800781 188.863281 157.800781 L 164.324219 157.800781 C 163.828125 157.800781 163.421875 157.398438 163.421875 156.902344 C 163.421875 156.402344 163.828125 156 164.324219 156 Z M 164.324219 166.664062 L 175.066406 166.664062 C 175.5625 166.664062 175.96875 167.066406 175.96875 167.566406 C 175.96875 168.0625 175.5625 168.46875 175.066406 168.46875 L 164.324219 168.46875 C 163.828125 168.46875 163.421875 168.0625 163.421875 167.566406 C 163.421875 167.066406 163.828125 166.664062 164.324219 166.664062 Z M 164.324219 177.328125 L 184.359375 177.328125 C 184.855469 177.328125 185.261719 177.734375 185.261719 178.230469 C 185.261719 178.730469 184.855469 179.132812 184.359375 179.132812 L 164.324219 179.132812 C 163.828125 179.132812 163.421875 178.730469 163.421875 178.230469 C 163.421875 177.734375 163.828125 177.328125 164.324219 177.328125 Z M 180.578125 211.125 L 164.324219 211.125 C 163.828125 211.125 163.421875 210.722656 163.421875 210.226562 C 163.421875 209.726562 163.828125 209.324219 164.324219 209.324219 L 180.578125 209.324219 C 181.078125 209.324219 181.480469 209.726562 181.480469 210.226562 C 181.480469 210.722656 181.078125 211.125 180.578125 211.125 Z M 194.535156 211.125 L 186.148438 211.125 C 185.652344 211.125 185.25 210.722656 185.25 210.226562 C 185.25 209.726562 185.652344 209.324219 186.148438 209.324219 L 194.535156 209.324219 C 195.035156 209.324219 195.4375 209.726562 195.4375 210.226562 C 195.4375 210.722656 195.035156 211.125 194.535156 211.125 Z M 194.535156 211.125 " fill-opacity="1" fill-rule="evenodd"/><path fill="#fffffe" d="M 209.164062 157.433594 L 199.488281 147.753906 L 199.488281 157.433594 Z M 209.164062 157.433594 " fill-opacity="1" fill-rule="evenodd"/><path fill="#1772bd" d="M 282.910156 224.292969 C 282.332031 224.554688 281.75 224.804688 281.164062 225.042969 C 263.226562 232.347656 241.847656 228.773438 227.277344 214.316406 C 207.921875 195.109375 207.921875 163.96875 227.277344 144.765625 C 241.847656 130.308594 263.226562 126.734375 281.164062 134.039062 C 287.0625 136.4375 292.585938 140.015625 297.375 144.765625 C 316.730469 163.96875 316.730469 195.109375 297.375 214.316406 C 296.5625 215.121094 295.730469 215.890625 294.878906 216.628906 C 291.203125 219.8125 287.164062 222.367188 282.910156 224.292969 Z M 294.972656 179.539062 C 294.972656 161.5 280.355469 146.871094 262.324219 146.871094 C 244.296875 146.871094 229.679688 161.5 229.679688 179.539062 C 229.679688 197.578125 244.292969 212.207031 262.324219 212.207031 C 280.355469 212.207031 294.972656 197.578125 294.972656 179.539062 Z M 294.972656 179.539062 " fill-opacity="1" fill-rule="evenodd"/><path fill="#c5daeb" d="M 262.324219 146.871094 C 280.355469 146.871094 294.972656 161.5 294.972656 179.539062 C 294.972656 197.578125 280.355469 212.207031 262.324219 212.207031 C 244.296875 212.207031 229.679688 197.578125 229.679688 179.539062 C 229.679688 161.5 244.296875 146.871094 262.324219 146.871094 Z M 262.324219 146.871094 " fill-opacity="1" fill-rule="evenodd"/><path fill="#ebedf6" d="M 108.253906 83.902344 L 108.253906 70.378906 C 108.253906 64.617188 112.921875 59.949219 118.679688 59.949219 L 238.027344 59.949219 C 239.53125 59.949219 241 60.273438 242.34375 60.882812 L 242.34375 98.792969 L 280.226562 98.792969 C 280.839844 100.132812 281.164062 101.609375 281.164062 103.113281 L 281.164062 134.039062 C 263.226562 126.734375 241.847656 130.308594 227.277344 144.765625 C 207.921875 163.96875 207.921875 195.109375 227.277344 214.316406 C 241.847656 228.773438 263.226562 232.347656 281.164062 225.042969 L 281.164062 280.832031 C 281.164062 286.59375 276.5 291.265625 270.742188 291.265625 L 118.679688 291.265625 C 112.921875 291.265625 108.253906 286.59375 108.253906 280.832031 Z M 108.253906 83.902344 " fill-opacity="1" fill-rule="evenodd"/><path fill="#dbdde6" d="M 280.226562 98.792969 L 242.34375 98.792969 L 242.34375 60.882812 C 243.46875 61.398438 244.503906 62.109375 245.394531 63 L 278.109375 95.738281 C 279.003906 96.625 279.71875 97.664062 280.226562 98.792969 Z M 280.226562 98.792969 " fill-opacity="1" fill-rule="evenodd"/><path fill="#dbdde6" d="M 257.226562 291.265625 L 257.226562 304.785156 C 257.226562 310.542969 252.5625 315.214844 246.804688 315.214844 L 94.742188 315.214844 C 88.984375 315.214844 84.316406 310.542969 84.316406 304.785156 L 84.316406 94.332031 C 84.316406 88.570312 88.984375 83.902344 94.742188 83.902344 L 108.253906 83.902344 L 108.253906 280.832031 C 108.253906 286.59375 112.921875 291.265625 118.679688 291.265625 Z M 257.226562 291.265625 " fill-opacity="1" fill-rule="evenodd"/><g clip-path="url(#7ef96e3f47)"><path fill="#333333" d="M 326.863281 285.332031 C 322.746094 285.332031 318.546875 282.972656 315.898438 279.175781 L 279.527344 226.636719 C 279.050781 225.949219 278.792969 225.128906 278.792969 224.292969 C 278.792969 222.019531 280.636719 220.175781 282.910156 220.175781 C 284.347656 220.175781 285.613281 220.910156 286.347656 222.027344 L 322.65625 274.476562 C 324.003906 276.410156 325.765625 277.097656 326.863281 277.097656 C 327.296875 277.097656 327.660156 276.996094 327.953125 276.796875 C 328.363281 276.515625 328.632812 276.039062 328.753906 275.382812 C 328.988281 274.089844 328.5625 272.507812 327.613281 271.144531 L 291.496094 218.972656 C 290.203125 217.101562 290.667969 214.539062 292.535156 213.242188 C 294.402344 211.949219 296.96875 212.414062 298.261719 214.28125 L 334.371094 266.445312 C 336.574219 269.605469 337.480469 273.40625 336.847656 276.859375 C 336.335938 279.675781 334.828125 282.0625 332.605469 283.589844 C 330.941406 284.730469 328.957031 285.332031 326.863281 285.332031 Z M 326.863281 285.332031 " fill-opacity="1" fill-rule="evenodd"/></g><path fill="#333333" d="M 262.328125 232.835938 C 247.996094 232.835938 234.519531 227.296875 224.382812 217.238281 C 214.234375 207.171875 208.648438 193.78125 208.648438 179.539062 C 208.648438 165.296875 214.234375 151.90625 224.382812 141.839844 C 234.519531 131.78125 247.996094 126.242188 262.328125 126.242188 C 276.65625 126.242188 290.132812 131.78125 300.269531 141.839844 C 310.417969 151.90625 316.003906 165.296875 316.003906 179.539062 C 316.003906 193.78125 310.417969 207.167969 300.269531 217.238281 C 290.132812 227.296875 276.65625 232.835938 262.328125 232.835938 Z M 262.328125 134.496094 C 250.683594 134.496094 239.039062 138.890625 230.175781 147.6875 C 221.601562 156.195312 216.875 167.507812 216.875 179.539062 C 216.875 191.570312 221.601562 202.882812 230.175781 211.390625 C 247.902344 228.980469 276.75 228.980469 294.476562 211.390625 C 303.050781 202.882812 307.773438 191.570312 307.773438 179.539062 C 307.773438 167.507812 303.050781 156.195312 294.476562 147.6875 C 285.613281 138.894531 273.96875 134.496094 262.328125 134.496094 Z M 262.328125 134.496094 " fill-opacity="1" fill-rule="evenodd"/><path fill="#333333" d="M 262.328125 216.324219 C 252.507812 216.324219 243.273438 212.496094 236.332031 205.550781 C 229.386719 198.601562 225.5625 189.367188 225.5625 179.539062 C 225.5625 169.714844 229.386719 160.476562 236.332031 153.53125 C 243.273438 146.582031 252.507812 142.757812 262.328125 142.757812 C 272.144531 142.757812 281.378906 146.582031 288.320312 153.53125 C 295.261719 160.476562 299.085938 169.714844 299.085938 179.539062 C 299.085938 189.363281 295.261719 198.601562 288.320312 205.550781 C 281.378906 212.496094 272.144531 216.324219 262.328125 216.324219 Z M 262.328125 150.992188 C 246.59375 150.992188 233.792969 163.796875 233.792969 179.539062 C 233.792969 195.28125 246.59375 208.089844 262.328125 208.089844 C 278.058594 208.089844 290.859375 195.28125 290.859375 179.539062 C 290.859375 163.796875 278.058594 150.992188 262.328125 150.992188 Z M 262.328125 150.992188 " fill-opacity="1" fill-rule="evenodd"/><g clip-path="url(#bf3ac118c3)"><path fill="#333333" d="M 246.804688 319.335938 L 94.742188 319.335938 C 86.722656 319.335938 80.199219 312.808594 80.199219 304.785156 L 80.199219 94.332031 C 80.199219 86.308594 86.722656 79.78125 94.742188 79.78125 L 108.253906 79.78125 C 110.527344 79.78125 112.367188 81.625 112.367188 83.902344 C 112.367188 86.175781 110.527344 88.019531 108.253906 88.019531 L 94.742188 88.019531 C 91.261719 88.019531 88.429688 90.851562 88.429688 94.332031 L 88.429688 304.785156 C 88.429688 308.265625 91.261719 311.097656 94.742188 311.097656 L 246.804688 311.097656 C 250.28125 311.097656 253.113281 308.265625 253.113281 304.785156 L 253.113281 291.265625 C 253.113281 288.988281 254.953125 287.148438 257.226562 287.148438 C 259.5 287.148438 261.339844 288.988281 261.339844 291.265625 L 261.339844 304.785156 C 261.339844 312.808594 254.820312 319.335938 246.804688 319.335938 Z M 246.804688 319.335938 " fill-opacity="1" fill-rule="evenodd"/></g><path fill="#333333" d="M 280.230469 102.910156 L 242.34375 102.910156 C 240.074219 102.910156 238.230469 101.066406 238.230469 98.792969 L 238.230469 60.882812 C 238.230469 58.609375 240.074219 56.765625 242.34375 56.765625 C 244.617188 56.765625 246.460938 58.609375 246.460938 60.882812 L 246.460938 94.675781 L 280.230469 94.675781 C 282.503906 94.675781 284.34375 96.515625 284.34375 98.792969 C 284.34375 101.066406 282.503906 102.910156 280.230469 102.910156 Z M 280.230469 102.910156 " fill-opacity="1" fill-rule="evenodd"/><g clip-path="url(#e0d2b08bb0)"><path fill="#333333" d="M 270.742188 295.382812 L 118.679688 295.382812 C 110.664062 295.382812 104.140625 288.855469 104.140625 280.832031 L 104.140625 70.378906 C 104.140625 62.355469 110.664062 55.832031 118.679688 55.832031 L 238.027344 55.832031 C 240.089844 55.832031 242.085938 56.257812 243.96875 57.101562 C 243.996094 57.113281 244.027344 57.125 244.058594 57.140625 C 245.644531 57.867188 247.070312 58.859375 248.304688 60.085938 L 281.019531 92.824219 C 282.253906 94.054688 283.25 95.492188 283.972656 97.085938 C 284.828125 98.960938 285.28125 101.046875 285.28125 103.113281 L 285.28125 134.039062 C 285.28125 136.3125 283.4375 138.15625 281.167969 138.15625 C 278.894531 138.15625 277.050781 136.3125 277.050781 134.039062 L 277.050781 103.113281 C 277.050781 102.21875 276.855469 101.316406 276.484375 100.507812 C 276.484375 100.5 276.480469 100.496094 276.476562 100.488281 C 276.167969 99.804688 275.738281 99.1875 275.207031 98.65625 L 242.484375 65.914062 C 241.964844 65.394531 241.359375 64.96875 240.6875 64.65625 C 240.671875 64.648438 240.65625 64.640625 240.640625 64.632812 C 239.8125 64.257812 238.933594 64.066406 238.027344 64.066406 L 118.679688 64.066406 C 115.199219 64.066406 112.367188 66.898438 112.367188 70.378906 L 112.367188 280.832031 C 112.367188 284.316406 115.199219 287.148438 118.679688 287.148438 L 270.742188 287.148438 C 274.222656 287.148438 277.050781 284.316406 277.050781 280.832031 L 277.050781 225.042969 C 277.050781 222.769531 278.894531 220.925781 281.167969 220.925781 C 283.4375 220.925781 285.28125 222.769531 285.28125 225.042969 L 285.28125 280.832031 C 285.28125 288.855469 278.757812 295.382812 270.742188 295.382812 Z M 270.742188 295.382812 " fill-opacity="1" fill-rule="evenodd"/></g><path fill="#333333" d="M 212.761719 98.539062 L 138.089844 98.539062 C 135.816406 98.539062 133.976562 96.695312 133.976562 94.421875 C 133.976562 92.148438 135.816406 90.304688 138.089844 90.304688 L 212.761719 90.304688 C 215.035156 90.304688 216.875 92.148438 216.875 94.421875 C 216.875 96.695312 215.035156 98.539062 212.761719 98.539062 Z M 212.761719 98.539062 " fill-opacity="1" fill-rule="evenodd"/><path fill="#333333" d="M 212.761719 131.011719 L 189.027344 131.011719 C 186.753906 131.011719 184.914062 129.167969 184.914062 126.894531 C 184.914062 124.621094 186.753906 122.777344 189.027344 122.777344 L 212.761719 122.777344 C 215.035156 122.777344 216.875 124.621094 216.875 126.894531 C 216.875 129.167969 215.035156 131.011719 212.761719 131.011719 Z M 212.761719 131.011719 " fill-opacity="1" fill-rule="evenodd"/><path fill="#333333" d="M 170.777344 131.011719 L 138.089844 131.011719 C 135.816406 131.011719 133.976562 129.167969 133.976562 126.894531 C 133.976562 124.621094 135.816406 122.777344 138.089844 122.777344 L 170.777344 122.777344 C 173.046875 122.777344 174.890625 124.621094 174.890625 126.894531 C 174.890625 129.167969 173.046875 131.011719 170.777344 131.011719 Z M 170.777344 131.011719 " fill-opacity="1" fill-rule="evenodd"/><path fill="#333333" d="M 199.050781 163.484375 L 138.089844 163.484375 C 135.816406 163.484375 133.976562 161.640625 133.976562 159.367188 C 133.976562 157.09375 135.816406 155.25 138.089844 155.25 L 199.050781 155.25 C 201.324219 155.25 203.167969 157.09375 203.167969 159.367188 C 203.167969 161.640625 201.324219 163.484375 199.050781 163.484375 Z M 199.050781 163.484375 " fill-opacity="1" fill-rule="evenodd"/><path fill="#333333" d="M 230.023438 260.902344 L 204.503906 260.902344 C 202.230469 260.902344 200.390625 259.058594 200.390625 256.785156 C 200.390625 254.511719 202.230469 252.667969 204.503906 252.667969 L 230.023438 252.667969 C 232.296875 252.667969 234.140625 254.511719 234.140625 256.785156 C 234.140625 259.058594 232.296875 260.902344 230.023438 260.902344 Z M 230.023438 260.902344 " fill-opacity="1" fill-rule="evenodd"/><path fill="#333333" d="M 187.554688 260.902344 L 138.089844 260.902344 C 135.820312 260.902344 133.976562 259.058594 133.976562 256.785156 C 133.976562 254.511719 135.820312 252.667969 138.089844 252.667969 L 187.554688 252.667969 C 189.824219 252.667969 191.667969 254.511719 191.667969 256.785156 C 191.667969 259.058594 189.824219 260.902344 187.554688 260.902344 Z M 187.554688 260.902344 " fill-opacity="1" fill-rule="evenodd"/><path fill="#333333" d="M 199.050781 195.957031 L 138.089844 195.957031 C 135.820312 195.957031 133.976562 194.113281 133.976562 191.839844 C 133.976562 189.566406 135.820312 187.722656 138.089844 187.722656 L 199.050781 187.722656 C 201.324219 187.722656 203.167969 189.566406 203.167969 191.839844 C 203.167969 194.113281 201.324219 195.957031 199.050781 195.957031 Z M 199.050781 195.957031 " fill-opacity="1" fill-rule="evenodd"/><path fill="#333333" d="M 208.746094 228.429688 L 138.09375 228.429688 C 135.820312 228.429688 133.976562 226.589844 133.976562 224.3125 C 133.976562 222.039062 135.820312 220.195312 138.09375 220.195312 L 208.746094 220.195312 C 211.019531 220.195312 212.859375 222.039062 212.859375 224.3125 C 212.859375 226.589844 211.019531 228.429688 208.746094 228.429688 Z M 208.746094 228.429688 " fill-opacity="1" fill-rule="evenodd"/></svg>